<svg xmlns="http://www.w3.org/2000/svg" viewBox="0 0 64 64" width="64" height="64">
  <!--
    "J" letter with small shield/diamond above
    Shield: classic heraldic shield outline
    J: vertical stroke curving left at bottom with serif top
  -->
  <g fill="currentColor">
    <!-- Shield shape above J -->
    <path d="
      M32 4
      L42 4
      L42 12
      Q42 17 32 20
      Q22 17 22 12
      L22 4
      Z
    "/>
    <!-- Diamond pip inside shield (cutout look via lighter or just decorative diamond) -->
    <!-- We'll add a small white diamond centered in the shield -->
    <!-- Actually keep shield solid and add just a small inner accent line -->
    <path d="M32 7 L38 11 L32 15 L26 11 Z" fill="none" stroke-width="1.5" stroke="white" opacity="0.4"/>

    <!-- J vertical stem -->
    <rect x="28" y="22" width="8" height="28" rx="1"/>
    <!-- J serif top -->
    <rect x="22" y="22" width="20" height="5" rx="1"/>
    <!-- J bottom curve to the left -->
    <path d="
      M28 46
      Q28 56 20 58
      Q12 60 10 54
      L10 50
      Q14 55 20 53
      Q26 51 26 46
      Z
    "/>
    <!-- J left bottom serif at hook -->
    <rect x="8" y="52" width="14" height="4" rx="2"/>
  </g>
</svg>
